<svg width="24" height="24" xmlns="http://www.w3.org/2000/svg">

 <g>
  <title>background</title>
  <rect fill="none" id="canvas_background" height="402" width="582" y="-1" x="-1"/>
 </g>
 <g>
  <title>Layer 1</title>
  <path id="svg_1" fill="none" d="m0,0l24,0l0,24l-24,0l0,-24z"/>
  <path fill="#ff0000" id="svg_2" d="m15.67,4l-1.67,0l0,-2l-4,0l0,2l-1.67,0c-0.73,0 -1.33,0.6 -1.33,1.33l0,15.33c0,0.74 0.6,1.34 1.33,1.34l7.33,0c0.74,0 1.34,-0.6 1.34,-1.33l0,-15.34c0,-0.73 -0.6,-1.33 -1.33,-1.33zm-2.67,14l-2,0l0,-2l2,0l0,2zm0,-4l-2,0l0,-5l2,0l0,5z"/>
 </g>
</svg>